<?xml version="1.0" encoding="utf-8"?>
<!-- Generator: Adobe Illustrator 23.0.1, SVG Export Plug-In . SVG Version: 6.00 Build 0)  -->
<svg version="1.1" id="Слой_1" xmlns="http://www.w3.org/2000/svg" xmlns:xlink="http://www.w3.org/1999/xlink" x="0px" y="0px"
	 viewBox="0 0 17.2 11.5" style="enable-background:new 0 0 17.2 11.5;" xml:space="preserve">
<path d="M11,0.2c-0.3,0.3-0.3,0.8,0,1.1L14.6,5H0.8C0.3,5,0,5.3,0,5.8c0,0.4,0.3,0.7,0.8,0.8h13.9L11,10.2c-0.3,0.3-0.3,0.8,0,1.1
	c0.3,0.3,0.8,0.3,1.1,0c0,0,0,0,0,0l4.9-5l0,0c0.1-0.1,0.1-0.2,0.2-0.2c0-0.1,0.1-0.2,0.1-0.3c0-0.2-0.1-0.4-0.2-0.5l-4.9-5
	C11.8-0.1,11.3-0.1,11,0.2C11,0.2,11,0.2,11,0.2z"/>
</svg>
