<?xml version="1.0" encoding="utf-8"?>
<!-- Generator: Adobe Illustrator 23.0.1, SVG Export Plug-In . SVG Version: 6.00 Build 0)  -->
<svg version="1.1" id="Слой_1" xmlns="http://www.w3.org/2000/svg" xmlns:xlink="http://www.w3.org/1999/xlink" x="0px" y="0px"
	 viewBox="0 0 44.2 42.3" style="enable-background:new 0 0 44.2 42.3;" xml:space="preserve">
<path d="M41.5,16.3c-1.8-1.7-4.2-2.6-6.6-2.6h-2H1.5c-0.8,0-1.5,0.7-1.5,1.5v17.7c0,5.2,4.2,9.4,9.4,9.4h15.7c5.2,0,9.4-4.2,9.4-9.4
	v-0.5h0.4c0.1,0,0.1,0,0.2,0s0.1,0,0.2,0c2.5-0.1,4.8-1.1,6.5-2.9c1.7-1.8,2.6-4.2,2.6-6.7C44.3,20.4,43.3,18.1,41.5,16.3z
	 M31.4,32.9c0,3.5-2.9,6.4-6.4,6.4H9.4c-3.5,0-6.4-2.8-6.4-6.4V16.7h28.4V32.9z M39.6,27.5c-1.2,1.2-2.8,1.9-4.5,2
	c-0.1,0-0.2,0-0.3,0h-0.5V16.7l0.5,0c1.7,0,3.3,0.6,4.5,1.8c1.2,1.2,1.9,2.8,2,4.4C41.4,24.6,40.8,26.3,39.6,27.5z M7.9,7.4V1.5
	C7.9,0.7,8.5,0,9.4,0s1.5,0.7,1.5,1.5v5.9c0,0.8-0.7,1.5-1.5,1.5S7.9,8.2,7.9,7.4z M15.7,7.4V1.5c0-0.8,0.7-1.5,1.5-1.5
	s1.5,0.7,1.5,1.5v5.9c0,0.8-0.7,1.5-1.5,1.5S15.7,8.2,15.7,7.4z M23.6,7.4V1.5c0-0.8,0.7-1.5,1.5-1.5s1.5,0.7,1.5,1.5v5.9
	c0,0.8-0.7,1.5-1.5,1.5S23.6,8.2,23.6,7.4z"/>
</svg>
