<?xml version="1.0" encoding="utf-8"?>
<!-- Generator: Adobe Illustrator 23.0.1, SVG Export Plug-In . SVG Version: 6.00 Build 0)  -->
<svg version="1.1" id="Слой_1" xmlns="http://www.w3.org/2000/svg" xmlns:xlink="http://www.w3.org/1999/xlink" x="0px" y="0px"
	 viewBox="0 0 42.9 42.9" style="enable-background:new 0 0 42.9 42.9;" xml:space="preserve">
<path d="M42.9,13.3c0-3.5-1.4-6.9-3.9-9.4c-5.2-5.2-13.6-5.2-18.8,0L6.9,17.1c-0.3,0.3-0.4,0.7-0.4,1.1v16.1l-5.4,5.4
	c-0.6,0.6-0.6,1.5,0,2.1c0.3,0.3,0.7,0.4,1.1,0.4s0.8-0.1,1.1-0.4l5.5-5.5h16.1c0.4,0,0.8-0.2,1.1-0.4l7.7-7.7
	c0.1-0.1,0.2-0.2,0.3-0.3l5.3-5.3C41.5,20.2,42.9,16.8,42.9,13.3z M24.1,33.4H11.6l4.9-4.9h12.4L24.1,33.4z M36.9,20.6l-5,5H19.5
	l11.2-11.2c0.6-0.6,0.6-1.5,0-2.1c-0.6-0.6-1.5-0.6-2.1,0L14.8,26c0,0,0,0,0,0l-5.3,5.3V18.8L22.3,6c4-4,10.5-4,14.5,0
	c1.9,1.9,3,4.5,3,7.3C39.9,16,38.8,18.6,36.9,20.6C36.9,20.6,36.9,20.6,36.9,20.6z"/>
</svg>
