<?xml version="1.0" encoding="utf-8"?>
<!-- Generator: Adobe Illustrator 23.0.1, SVG Export Plug-In . SVG Version: 6.00 Build 0)  -->
<svg version="1.1" id="Слой_1" xmlns="http://www.w3.org/2000/svg" xmlns:xlink="http://www.w3.org/1999/xlink" x="0px" y="0px"
	 viewBox="0 0 42.3 40.3" style="enable-background:new 0 0 42.3 40.3;" xml:space="preserve">
<g id="Icon_feather-star">
	<path d="M9,40.3c-0.3,0-0.6-0.1-0.9-0.3c-0.5-0.3-0.7-0.9-0.6-1.5l2.2-12.7l-9.3-9c-0.4-0.4-0.6-1-0.4-1.5c0.2-0.5,0.6-0.9,1.2-1
		l12.8-1.9l5.7-11.6C20,0.3,20.6,0,21.1,0s1.1,0.3,1.3,0.8l5.7,11.6L41,14.3c0.6,0.1,1,0.5,1.2,1c0.2,0.5,0,1.1-0.4,1.5l-9.3,9
		l2.2,12.7c0.1,0.6-0.1,1.1-0.6,1.5c-0.5,0.3-1.1,0.4-1.6,0.1l-11.4-6l-11.4,6C9.5,40.3,9.2,40.3,9,40.3z M4.7,16.8l7.6,7.4
		c0.4,0.3,0.5,0.8,0.4,1.3L11,36.1l9.4-5c0.4-0.2,1-0.2,1.4,0l9.4,5l-1.8-10.5c-0.1-0.5,0.1-1,0.4-1.3l7.6-7.4L27,15.3
		c-0.5-0.1-0.9-0.4-1.1-0.8l-4.7-9.6l-4.7,9.6c-0.2,0.4-0.6,0.7-1.1,0.8L4.7,16.8z"/>
</g>
</svg>
